<?xml version="1.0" encoding="UTF-8" standalone="no"?>
<!DOCTYPE svg PUBLIC "-//W3C//DTD SVG 1.1//EN" "http://www.w3.org/Graphics/SVG/1.1/DTD/svg11.dtd">
<svg width="1000.00" height="1000.00" viewBox="0.00 0.00 1000.00 1000.00" xmlns="http://www.w3.org/2000/svg" xmlns:xlink="http://www.w3.org/1999/xlink">
<g stroke-linecap="round" transform="translate(-42.00, -36.00)" id="レイヤー_2">
<path d="M172.72,172.43 C169.37,178.37 161.33,192.75 157.99,199.84 C155.04,206.25 149.62,218.94 146.62,227.42 C142.95,238.04 133.76,276.94 131.76,287.71 C130.05,297.58 128.75,306.80 128.00,317.08 C127.31,329.98 126.96,366.17 127.26,383.56 C127.58,391.28 128.90,408.63 129.87,414.32 C130.92,420.38 133.25,426.86 135.50,431.04 C136.66,433.25 138.23,436.22 138.63,436.98" fill="none" stroke="rgb(103, 103, 103)" stroke-width="50.27" stroke-opacity="1.00" stroke-linejoin="round"/>
<path d="M173.15,167.07 C180.18,171.33 186.57,174.53 195.58,178.61 C213.71,186.51 236.38,197.78 253.30,207.16 C267.58,215.48 298.05,234.72 308.61,242.12 C326.09,254.88 334.33,262.25 340.62,269.34" fill="none" stroke="rgb(103, 103, 103)" stroke-width="50.27" stroke-opacity="1.00" stroke-linejoin="round"/>
<path d="M339.45,265.60 C345.18,263.81 360.68,259.09 368.37,257.64 C381.37,255.33 414.27,249.85 428.40,248.11 C447.41,246.15 478.47,243.93 494.32,243.17 C510.96,242.68 543.50,242.11 559.39,242.04 C574.43,242.27 609.12,243.78 625.19,245.01 C639.83,246.46 667.60,249.45 686.09,252.02 C698.40,253.98 721.05,258.17 724.41,258.79" fill="none" stroke="rgb(103, 103, 103)" stroke-width="50.27" stroke-opacity="1.00" stroke-linejoin="round"/>
<path d="M727.52,268.26 C727.52,268.26 724.68,268.66 724.68,268.66 C733.50,256.83 746.46,242.17 762.00,225.82 C768.05,219.58 780.45,207.64 786.75,202.03 C793.11,196.65 806.11,186.53 812.75,181.91 C818.03,178.34 832.64,169.42 838.84,165.92 C847.15,161.49 860.47,155.26 868.23,152.93 C870.91,152.13 879.19,150.20 882.56,149.42 C890.99,147.62 901.28,146.59 905.13,146.25" fill="none" stroke="rgb(103, 103, 103)" stroke-width="50.27" stroke-opacity="1.00" stroke-linejoin="round"/>
<path d="M893.59,146.07 C900.02,159.91 908.78,185.22 913.62,200.29 C918.43,216.51 926.03,245.63 929.57,260.80 C932.85,276.08 937.86,307.22 939.54,323.13 C940.26,331.04 941.23,345.95 941.49,352.91 C941.90,371.05 939.00,393.94 938.11,400.89" fill="none" stroke="rgb(103, 103, 103)" stroke-width="50.27" stroke-opacity="1.00" stroke-linejoin="round"/>
<path d="M145.98,436.03 C145.98,436.03 147.66,430.82 147.66,430.82 C142.54,441.48 127.40,472.98 122.15,485.01 C118.71,493.41 111.53,512.99 109.96,518.18 C107.12,528.03 103.59,542.65 102.08,550.66 C99.95,563.08 96.39,598.75 96.23,611.36 C96.19,620.05 97.11,634.38 98.25,643.16 C99.31,650.52 102.56,666.94 104.07,672.10 C106.29,679.47 111.55,694.13 114.58,701.39 C117.72,708.60 125.67,724.51 128.54,729.20 C132.49,735.49 141.01,748.00 145.57,754.21 C157.30,769.55 172.29,786.48 186.22,800.20 C191.87,805.56 203.42,815.86 209.34,820.78 C212.89,823.67 227.98,834.53 234.48,838.88 C241.11,843.12 254.22,851.06 260.72,854.91 C267.29,858.65 281.69,865.95 288.97,869.42 C296.23,872.72 310.79,878.78 318.09,881.51 C322.34,883.05 339.50,888.05 346.78,889.90 C358.53,892.63 385.84,897.85 407.07,900.80 C422.46,902.73 459.28,906.29 469.53,906.80 C484.16,907.34 514.35,907.68 530.14,907.38 C551.39,906.54 576.49,904.47 591.53,902.93 C607.07,901.12 638.84,896.57 654.80,893.79 C667.29,891.41 701.84,883.25 717.64,879.03 C733.51,874.47 763.86,864.54 778.26,859.18 C782.72,857.45 801.35,849.24 808.94,845.64 C823.33,838.49 853.71,820.91 863.36,814.74 C871.79,809.15 882.65,800.97 889.30,795.63 C896.51,789.57 907.00,779.60 912.37,774.24 C917.55,768.86 927.48,758.00 932.33,751.88 C937.13,745.62 948.04,730.27 950.54,726.33 C954.71,719.68 962.72,704.44 965.20,698.27 C967.38,692.78 972.83,676.79 975.09,669.16 C977.19,661.38 980.91,646.00 982.52,638.41 C984.02,630.82 986.18,615.03 987.04,607.14 C987.73,599.26 988.66,583.70 988.94,576.15 C989.17,564.97 989.05,557.34 988.43,545.78 C987.86,538.11 986.28,523.11 985.05,515.56 C983.43,506.47 980.90,495.84 977.85,485.11 C975.44,477.35 969.64,460.62 967.00,454.30 C963.64,446.28 956.41,432.19 951.31,424.34 C946.51,417.42 936.47,402.53 936.00,400.30 C935.54,397.84 936.32,395.06 938.19,392.24 C938.64,391.59 939.16,390.78 939.75,389.82" fill="none" stroke="rgb(103, 103, 103)" stroke-width="50.27" stroke-opacity="1.00" stroke-linejoin="round"/>
<path d="M523.18,777.52 C519.34,778.16 514.31,780.44 510.95,783.11 C508.03,785.49 504.19,789.99 502.74,792.79 C501.26,795.76 499.87,802.10 499.53,806.75 C499.36,809.41 499.54,812.90 500.01,814.77 C500.51,816.64 502.01,819.65 503.11,821.06 C505.23,823.67 511.13,827.83 514.45,829.18 C517.82,830.50 525.00,830.88 529.54,829.88 C530.85,829.57 535.04,828.36 536.07,827.86 C539.47,826.16 545.12,819.86 547.06,818.11 C549.87,815.52 552.55,810.56 554.62,804.79 C555.34,802.70 556.53,799.25 557.01,797.88 C562.67,808.37 567.52,816.80 570.91,819.76 C573.51,821.96 581.10,825.68 584.69,826.00 C588.44,826.28 595.64,824.46 598.92,822.98 C602.48,821.36 608.98,817.23 610.69,815.53 C613.53,812.62 615.41,807.45 615.68,803.57 C615.86,800.38 614.88,793.14 613.94,789.77 C612.75,785.72 609.47,780.23 605.66,776.99 C605.09,776.51 604.42,775.94 603.65,775.27" fill="none" stroke="rgb(103, 103, 103)" stroke-width="50.27" stroke-opacity="1.00" stroke-linejoin="round"/>
<path d="M741.17,758.53 C742.81,758.56 780.41,753.28 797.80,751.57 C801.32,751.28 805.12,751.12 805.86,750.99 C806.36,750.90 807.60,750.65 809.58,750.23" fill="none" stroke="rgb(103, 103, 103)" stroke-width="40.00" stroke-opacity="1.00" stroke-linejoin="round"/>
<path d="M750.10,788.83 C766.01,789.05 794.58,789.33 799.12,789.18 C801.81,789.09 806.54,788.57 810.29,788.22 C810.83,788.17 811.36,788.12 811.90,788.08" fill="none" stroke="rgb(103, 103, 103)" stroke-width="40.00" stroke-opacity="1.00" stroke-linejoin="round"/>
<path d="M382.32,803.27 C377.94,802.06 368.71,803.02 354.41,804.88 C346.58,805.80 328.16,807.93 325.44,808.34 C320.84,809.04 314.12,810.62 310.61,811.31 C308.93,811.63 306.14,812.16 305.05,812.37" fill="none" stroke="rgb(103, 103, 103)" stroke-width="40.00" stroke-opacity="1.00" stroke-linejoin="round"/>
<path d="M400.28,831.08 C396.12,831.00 380.74,834.43 372.84,836.23 C364.05,838.26 343.53,842.94 339.78,843.61 C338.61,843.82 335.05,844.31 333.96,844.46" fill="none" stroke="rgb(103, 103, 103)" stroke-width="40.00" stroke-opacity="1.00" stroke-linejoin="round"/>
<path d="M433.99,780.14" fill="none" stroke="rgb(103, 103, 103)" stroke-width="50.00" stroke-opacity="1.00" stroke-linejoin="round"/>
<path d="M673.04,759.57" fill="none" stroke="rgb(103, 103, 103)" stroke-width="50.00" stroke-opacity="1.00" stroke-linejoin="round"/>
</g>
</svg>

